<?xml version="1.0" encoding="utf-8"?>
<!-- Generator: Adobe Illustrator 22.0.0, SVG Export Plug-In . SVG Version: 6.00 Build 0)  -->
<svg version="1.1" id="Ebene_9_Kopie" xmlns="http://www.w3.org/2000/svg" xmlns:xlink="http://www.w3.org/1999/xlink" x="0px"
	 y="0px" viewBox="0 0 800 800" style="enable-background:new 0 0 800 800;" xml:space="preserve">
<style type="text/css">
	.st0{fill:#D32913;}
</style>
<g>
	<ellipse class="st0" cx="564" cy="240.5" rx="6" ry="6.5"/>
	<ellipse class="st0" cx="524" cy="240.5" rx="6" ry="6.5"/>
	<ellipse class="st0" cx="485" cy="240.5" rx="6" ry="6.5"/>
	<ellipse class="st0" cx="443" cy="240.5" rx="6" ry="6.5"/>
	<g>
		<g>
			<path class="st0" d="M598.8,450.5c6.3-4.6,23.6-19.4,36.3-22.3c6.2-1.4,15.6-1,21.3,1.8c2.9,1.4,12.8,6.6,10.5,13l0,0
				c-1.1,1.1-2.6,0.9-3.3-0.3c-0.1-0.1-0.2-0.3-0.2-0.4c-2.7-13-20.9-13.1-28.5-11.3c-5.8,1.4-18,7.1-18.5,14.3
				c-1.5,22.7,28,35.5,32.7,39.6c5.8,5.1,15.7,16,10.2,23.9c0,0,33.4-51.5,26.4-98.6c-3.4-22.9-30.9-62.7-74.4-70.3
				c-24.9-4.4-42.6-2.6-68.7,11.6c-3.5,1.9-16.8,13.1-28.1,24.2c-14.4,14-32,16.8-32,16.8c0,6-0.2,19,7.2,29.9
				c16.8,25.1,13.6,35.9,13.6,35.9C502.9,457.4,564.5,475.4,598.8,450.5z"/>
		</g>
	</g>
	<path class="st0" d="M573.6,316.6c0,0,3.8-45.9,29.7-55c25.9-9.2,52.3-3.5,52.3-3.5s-8-1.7-13.3,11.8S651,313.5,622,326
		c-0.7,0.3-19-11-51.7,0.6C570.3,326.6,569.2,326.4,573.6,316.6z"/>
	<path class="st0" d="M400,416.5c0,0,22,2,54-13c4-1.9,5-4,10-4c3.8,0,10,2,12,13.1c0.9,4.9,1.3,11,3.7,17
		c17.3,42.9,24.3,75.9,17.7,102c-8.2,32.3-16.8,41.1-66.6,78.5c-32,23.9-22,12.4-30.8,23.9L400,416.5z M400,416.5c0,0-22,2-54-13
		c-4-1.9-5-4-10-4c-3.8,0-10,2-12,13.1c-0.9,4.9-1.3,11-3.7,17c-17.3,42.9-24.3,75.9-17.7,102c8.2,32.3,16.8,41.1,66.6,78.5
		c32,23.9,22,12.4,30.8,23.9L400,416.5z"/>
	<ellipse class="st0" cx="235" cy="240.5" rx="6" ry="6.5"/>
	<ellipse class="st0" cx="275" cy="240.5" rx="6" ry="6.5"/>
	<ellipse class="st0" cx="314" cy="240.5" rx="6" ry="6.5"/>
	<ellipse class="st0" cx="356" cy="240.5" rx="6" ry="6.5"/>
	<g>
		<g>
			<path class="st0" d="M200.4,450.5c-6.3-4.6-23.6-19.4-36.3-22.3c-6.2-1.4-15.6-1-21.3,1.8c-2.9,1.4-12.8,6.6-10.5,13l0,0
				c1.1,1.1,2.6,0.9,3.3-0.3c0.1-0.1,0.2-0.3,0.2-0.4c2.7-13,20.9-13.1,28.5-11.3c5.8,1.4,18,7.1,18.5,14.3
				c1.5,22.7-28,35.5-32.7,39.6c-5.8,5.1-15.7,16-10.2,23.9c0,0-33.4-51.5-26.4-98.6c3.4-22.9,30.9-62.7,74.4-70.3
				c24.9-4.4,42.6-2.6,68.7,11.6c3.5,1.9,16.8,13.1,28.1,24.2c14.4,14,32,16.8,32,16.8c0,6,0.2,19-7.2,29.9
				c-16.8,25.1-13.6,35.9-13.6,35.9C296.3,457.4,234.7,475.4,200.4,450.5z"/>
		</g>
	</g>
	<g>
		<path class="st0" d="M400.5,400c21.9,0.6,44.5-4.8,64.6-12.9c30.2-12.1,56.6-32.4,74.7-59.5c13.3-20,21.6-42.9,26.1-66.4
			c0.6-3.1-4.2-4.5-4.8-1.3c-7.2,38-25,73.1-55.3,97.8c-21.7,17.7-48.2,29.2-75.6,34.5c-9.8,1.9-19.8,3.1-29.7,2.8
			C397.3,394.9,397.3,399.9,400.5,400L400.5,400z"/>
		<path class="st0" d="M403,397.6c20.7-3.5,40.7-11.1,58-23.1c21.1-14.7,37.3-35.3,48.3-58.4c8.3-17.5,13.9-36.1,17.6-55
			c0.6-3.1-4.2-4.5-4.8-1.3c-5.9,30-16.6,59.9-35.8,84.1c-14.1,17.7-32.4,31.7-53.3,40.2c-10.1,4.1-20.6,7-31.3,8.7
			C398.5,393.3,399.8,398.2,403,397.6L403,397.6z"/>
		<path class="st0" d="M403.2,393.9c13.5-2,26.2-10.2,36.4-19c17.7-15.3,29.9-36.2,37.5-58.2c6.3-18.1,9.5-37.2,10.9-56.3
			c0.2-3.2-4.8-3.2-5,0c-3.4,46.1-20.1,99.5-63.9,122.6c-5.4,2.8-11.2,5.1-17.2,6C398.7,389.6,400,394.4,403.2,393.9L403.2,393.9z"
			/>
		<path class="st0" d="M405.8,390.7c6.8-3.8,12.5-8,17.2-14.2c11.7-15.4,16.4-35.7,19.3-54.5c3.1-20.3,3.9-40.9,3.7-61.4
			c0-3.2-5-3.2-5,0c0.2,30-0.8,61.4-10.5,90.1c-3.9,11.5-9.7,23.7-19.7,31.2c-2.4,1.8-5,3.1-7.5,4.5
			C400.4,387.9,403,392.2,405.8,390.7L405.8,390.7z"/>
		<path class="st0" d="M398.7,395c-20.9,0.6-42.3-4.5-61.7-12.1c-29.9-11.7-56.3-31.9-74-58.8c-12.7-19.4-20.6-41.5-24.9-64.2
			c-0.6-3.2-5.4-1.8-4.8,1.3c7.3,38.7,25.7,74.8,56.5,100c22.2,18.1,49.1,30.1,77.1,35.6c10.4,2.1,21.1,3.4,31.8,3.2
			C401.9,399.9,401.9,394.9,398.7,395L398.7,395z"/>
		<path class="st0" d="M397.5,392.8c-19.8-3.3-38.9-10.4-55.5-21.7c-21-14.3-36.9-34.7-47.8-57.5c-8.2-17-13.5-35.3-17.1-53.8
			c-0.6-3.2-5.4-1.8-4.8,1.3c6.1,30.8,17.1,61,36.7,85.8c14.3,18.1,32.9,32.3,54.1,41.2c10.6,4.5,21.7,7.6,33.1,9.5
			C399.4,398.2,400.7,393.3,397.5,392.8L397.5,392.8z"/>
		<path class="st0" d="M397.4,389.1c-12.7-1.9-24.6-9.4-34.2-17.7c-17.2-14.9-29.1-35.2-36.4-56.6c-6-17.5-9.2-35.9-10.6-54.4
			c-0.2-3.2-5.2-3.2-5,0c3.6,47.7,20.9,102.7,66.1,126.7c5.8,3.1,12.1,5.7,18.7,6.7C399.2,394.4,400.5,389.6,397.4,389.1
			L397.4,389.1z"/>
		<path class="st0" d="M396,386.3c-6.2-3.5-11.4-7.1-15.8-12.9c-11.3-14.9-15.7-34.7-18.5-52.9c-3-19.9-3.7-40.1-3.5-60.1
			c0-3.2-5-3.2-5,0c-0.2,30.6,0.9,63,11,92.3c4.3,12.4,10.6,24.9,21.2,33c2.5,1.9,5.3,3.3,8,4.9C396.2,392.2,398.8,387.9,396,386.3
			L396,386.3z"/>
	</g>
	<path class="st0" d="M225.6,316.6c0,0-3.8-45.9-29.7-55c-25.9-9.2-52.3-3.5-52.3-3.5s8-1.7,13.3,11.8s-8.7,43.6,20.3,56.1
		c0.7,0.3,19-11,51.7,0.6C228.9,326.6,230,326.4,225.6,316.6z"/>
	<g>
		<ellipse class="st0" cx="400" cy="161.5" rx="10" ry="9.5"/>
		<g>
			<path class="st0" d="M399.9,176c0,0,6.2,2.8,7.7,8.3c0,0,3.1-8.3,15.4-5.5c0,0-15.4-4.6-17,42.3c-0.5,0,5.2-7.4,12-4.7
				c2.5,1,3.3,4.1,0,5.9c-3.8,2-5,1-7.5,3.9c-2.9,3.4-2.5,10.7-2.5,12.7c0,8.8-1.4,75.6,2.2,158.7l-11,0.5"/>
			<path class="st0" d="M400.1,176c0,0-6.2,2.8-7.7,8.3c0,0-3.1-8.3-15.4-5.5c0,0,15.4-4.6,17,42.3c0.5,0-5.2-7.4-12-4.7
				c-2.5,1-3.3,4.1,0,5.9c3.8,2,5,1,7.5,3.9c2.9,3.4,2.5,10.7,2.5,12.7c0,7.9,1.2,62.9-1.3,134.5c-0.3,7.9-0.6,16-0.9,24.3l11,0.5"
				/>
		</g>
	</g>
	<g>
		<path class="st0" d="M400,370c0-1.1-8.9-4.1-9-3c-0.3,4.2-4,16-10,8c-0.9-1.3-6.2-0.2-4,2c4,4,0,4-4,2c-1.9-0.9-8.8-0.3-7,1
			c4,3-2,3-10,0c-3.6-1.4-6.2-2.6-5,2c1,4-16,2-46-15c-0.1-0.1,6.9,5.9,7,6c2,2,46.2,26.7,86.9,23C399,396,400,370,400,370z"/>
		<path class="st0" d="M400,371c0-1.1,9-6,9-4c0,4,3,16,9,8c0.9-1.3,6.2-0.2,4,2c-4,4,0,4,4,2c1.9-0.9,8.8-0.3,7,1c-4,3,2,3,10,0
			c3.6-1.4,6.2-2.6,5,2c-1,4,16,2,46-15c0.1-0.1-6.9,5.9-7,6c-2,2-46.2,26.7-86.9,23C400,396,400,371,400,371z"/>
	</g>
</g>
</svg>
